<?xml version="1.0" standalone="no"?>
<!DOCTYPE svg PUBLIC "-//W3C//DTD SVG 20010904//EN"
 "http://www.w3.org/TR/2001/REC-SVG-20010904/DTD/svg10.dtd">
<svg version="1.0" xmlns="http://www.w3.org/2000/svg"
 width="401.000000pt" height="401.000000pt" viewBox="0 0 401.000000 401.000000"
 preserveAspectRatio="xMidYMid meet">
<metadata>
Created by potrace 1.14, written by Peter Selinger 2001-2017
</metadata>
<g transform="translate(0.000000,401.000000) scale(0.100000,-0.100000)"
fill="#000000" stroke="none">
<path d="M1849 4006 c-2 -2 -35 -6 -74 -10 -115 -11 -312 -55 -429 -97 -685
-244 -1176 -816 -1313 -1529 -21 -111 -31 -257 -28 -417 2 -100 5 -185 8 -190
3 -4 8 -35 12 -68 8 -75 54 -253 95 -370 61 -175 161 -362 278 -518 77 -104
248 -283 337 -353 28 -21 52 -42 55 -45 3 -3 52 -37 110 -76 109 -72 224 -135
320 -173 30 -12 64 -26 75 -30 75 -32 292 -91 377 -104 119 -18 160 -21 333
-20 167 0 255 5 321 19 94 19 211 48 269 66 39 13 72 23 75 24 3 1 14 5 25 10
11 4 41 16 67 26 137 53 379 196 492 291 328 275 543 593 660 978 84 276 106
542 71 845 -23 198 -98 442 -197 640 -48 96 -172 291 -220 346 -13 15 -32 39
-44 53 -26 33 -117 127 -180 187 -265 248 -683 449 -1034 494 -30 4 -64 9 -75
12 -23 5 -381 13 -386 9z"/>
</g>
</svg>
